Coordinates
version=1
nRows=6
nColumns=36
inDegrees=yes

Units are S.I. units (second, meters, Newtons, ...)
If the header above contains a line with 'inDegrees', this indicates whether rotational values are in degrees (yes) or radians (no).

endheader
time	pelvis_tilt	pelvis_list	pelvis_rotation	pelvis_tx	pelvis_ty	pelvis_tz	hip_flexion_r	hip_adduction_r	hip_rotation_r	knee_angle_r	knee_angle_r_beta	ankle_angle_r	subtalar_angle_r	mtp_angle_r	hip_flexion_l	hip_adduction_l	hip_rotation_l	knee_angle_l	knee_angle_l_beta	ankle_angle_l	subtalar_angle_l	mtp_angle_l	lumbar_extension	lumbar_bending	lumbar_rotation	arm_flex_r	arm_add_r	arm_rot_r	elbow_flex_r	pro_sup_r	arm_flex_l	arm_add_l	arm_rot_l	elbow_flex_l	pro_sup_l
      5.83050850	     -3.61271221	      0.66163428	      2.11475734	      0.33343980	      0.95008052	     -0.04988009	      0.42391139	     -6.86903789	     -2.74629321	      3.45250229	      0.06025753	      4.50542459	     -9.78001847	     -7.49999987	      3.56667823	     -2.83707185	     -0.63462979	      4.13606357	      0.07218793	      2.41490951	     -6.94566888	     -7.49999987	     -0.40618316	     -1.58833560	     -1.68647559	     36.42858266	     -4.92575871	      8.31513296	     48.45048226	     77.28802288	     22.06123606	     -1.08322671	    -13.34631797	     29.27698410	     64.12610969
      5.84745760	     -3.45458634	      0.57299431	      2.20632237	      0.33764810	      0.94690904	     -0.04595614	      0.11238871	     -6.71219065	     -2.66695668	      3.38586178	      0.05909444	      4.54595099	     -9.74052650	     -7.49999987	      3.36801316	     -2.98185928	     -0.55924229	      4.18195158	      0.07298882	      2.46088747	     -7.01401826	     -7.49999987	     -0.61330873	     -1.37519327	     -1.67943680	     34.02840308	     -4.94913202	      8.48144350	     47.95913241	     77.26389033	     20.92368745	     -1.71050587	    -13.31795347	     28.98863441	     64.13892518
      5.86440680	     -3.14646970	      0.53580519	      2.21545979	      0.34121988	      0.94764287	     -0.05056908	     -0.26543796	     -6.69677161	     -2.64014650	      3.61859784	      0.06315645	      4.45437999	     -9.70855741	     -7.49999987	      3.05186532	     -3.03073412	     -0.58399230	      4.35622016	      0.07603038	      2.42940174	     -7.04005575	     -7.49999987	     -0.94470177	     -1.10055069	     -1.96011511	     31.77170229	     -5.35306895	      8.52143381	     47.37753229	     77.24679763	     19.39015212	     -1.95618711	    -13.31878120	     28.57337767	     64.13854996
      5.88135590	     -3.34215511	      0.45085547	      2.31208332	      0.34134586	      0.95045908	     -0.05095919	     -0.42792880	     -6.59189117	     -3.04563133	      3.24236620	      0.05658997	      4.49053458	     -9.41378592	     -7.49999987	      3.06156035	     -3.09141875	     -0.34054029	      4.16379904	      0.07267200	      2.53973338	     -7.12672260	     -7.49999987	     -0.53242030	     -1.01933878	     -1.33177765	     28.55530821	     -6.12130444	      6.91920469	     48.06650613	     75.19393760	     18.27381408	     -2.18695213	    -10.08461939	     27.81345618	     64.31065223
      5.89830510	     -3.19093512	      0.40502531	      2.43030787	      0.33698384	      0.95071271	     -0.05501858	     -0.72368455	     -6.59295770	     -3.17864657	      3.14038389	      0.05481004	      4.42866994	     -9.39510833	     -7.49999987	      2.85282830	     -3.05243376	     -0.18644906	      4.09350294	      0.07144510	      2.58176084	     -7.09424999	     -7.49999987	     -0.84990534	     -0.73512397	     -1.46870081	     26.92341897	     -6.78903754	      6.67592397	     47.29753790	     75.17595686	     17.46212784	     -2.03113273	     -9.75062351	     27.63958512	     64.37900224
      5.91525420	     -3.00926484	      0.41387111	      2.46056991	      0.34100406	      0.95044732	     -0.05114576	     -1.07090319	     -6.58482903	     -3.24348165	      2.95985488	      0.05165921	      4.44277497	     -9.08334478	     -7.49999987	      2.56174433	     -3.04106050	     -0.11108486	      4.05483049	      0.07077014	      2.47933313	     -7.32745327	     -7.49999987	     -1.08694753	     -0.67626632	     -0.89034715	     24.96855812	     -6.88228796	      4.53325916	     46.52713123	     75.26696810	     17.15272895	     -2.45970236	     -6.17887772	     26.65436704	     65.24098815
